<svg width="341" height="617" viewBox="0 0 341 617" fill="none" xmlns="http://www.w3.org/2000/svg">
<g filter="url(#filter0_d_677_2219)">
<path d="M25.0958 279.434C19.8526 267.788 15.9634 255.579 13.5045 243.046C10.4354 227.509 9.77984 211.743 10.0579 195.869C10.7234 156.46 24.033 122.039 49.3013 92.0181C58.1152 81.3068 68.0849 71.602 79.0293 63.0801C82.5156 60.4277 83.3897 57.9442 81.5025 53.6129C76.9137 43.0331 75.3444 31.6884 73.3777 20.3537C71.4111 9.01889 71.3912 -2.06754 72.1362 -13.1242C73.8744 -39.8071 79.8438 -65.4271 96.153 -87.5105C99.539 -92.0048 103.553 -95.9893 108.072 -99.342C109.86 -100.693 111.211 -101.905 109.969 -104.18C102.728 -117.362 101.815 -131.677 102.41 -146.261C103.195 -147.681 104.079 -149.171 103.93 -150.781C103.195 -158.539 106.383 -165.682 107.357 -173.132C111.399 -189.325 121.66 -201.842 131.682 -214.518C138.108 -222.654 144.495 -230.79 148.09 -240.773C151.686 -250.757 151.735 -261.208 150.146 -271.47C148.557 -281.732 146.749 -292.142 144.187 -302.325C140.909 -315.18 137.631 -328.004 133.162 -340.462C130.579 -347.565 127.609 -354.509 124.957 -361.582C122.971 -366.986 123.964 -371.724 127.659 -374.645C131.97 -378.052 136.509 -377.347 141.058 -375.152C150.712 -370.493 158.38 -363.062 166.426 -356.277C182.169 -343.045 196.034 -328.114 206.344 -310.044C214.072 -296.523 220.548 -282.506 224.153 -267.397C226.383 -257.785 227.552 -247.958 227.64 -238.091C227.828 -224.184 227.967 -210.276 227.57 -196.418C227.361 -189.245 228.871 -182.351 229.557 -175.328C229.904 -171.771 232.944 -170.838 236.122 -173.291C240.313 -176.52 242.528 -181.109 244.435 -185.878C246.611 -189.295 247.207 -193.408 249.312 -196.855C254.08 -212.6 254.447 -228.872 254.338 -245.085C254.269 -256.012 251.646 -266.85 250.117 -277.728C249.044 -285.367 248.548 -293.116 250.663 -300.735C250.947 -301.509 251.124 -302.318 251.19 -303.14C251.09 -308.395 253.514 -312.259 258.411 -313.699C263.556 -315.219 268.075 -313.411 271.66 -309.249C281.365 -297.984 287.91 -284.91 292.916 -271.102C298.107 -257.307 301.605 -242.934 303.335 -228.296C304.865 -214.081 305.848 -199.875 306.931 -185.639C309.126 -156.602 307.378 -127.594 307.924 -98.587C306.899 -96.8914 306.363 -94.9455 306.375 -92.9643C307.159 -82.0368 304.388 -71.4968 303.008 -60.8077C302.57 -53.8539 300.485 -47.3172 298.935 -40.6316C296.531 -30.2902 293.433 -20.0482 295.399 -8.20682C299.611 -13.7302 303.246 -18.6873 307.08 -23.4755C317.122 -36.0222 329.557 -45.549 345.161 -49.5524C364.033 -54.3704 381.117 -48.9862 396.244 -37.5222C412.047 -25.6013 420.311 -8.71344 425.177 10.062C428.59 23.669 429.757 37.742 428.634 51.7255C427.988 60.835 426.151 69.8949 424.482 78.8952C422.813 87.8954 421.085 96.5977 418.741 105.27C412.345 128.854 406.494 152.685 393.91 174.024C391.407 178.276 393.771 178.991 396.89 179.915C409.683 183.749 421.483 189.322 430.76 199.326C437.802 206.916 441.387 216.114 443.831 225.979C446.562 236.906 447.148 248.033 447.019 259.258C446.969 263.917 445.41 268.278 445.45 272.977C445.658 298.647 457.925 317.382 482.498 326.075C493.424 329.959 507.687 324.416 514.61 313.468C519.864 305.154 521.91 295.984 522.307 286.319C522.506 281.352 521.672 276.385 523.877 271.666C524.443 270.434 524.87 269.212 526.122 268.557C528.903 267.047 530.293 264.583 531.088 261.603C532.856 258.702 534.971 256 536.054 252.732C550.953 232.228 571.434 219.621 595.103 211.853C612.475 206.131 630.244 202.574 648.659 203.151C657.857 203.409 667.213 202.227 676.242 203.518C694.747 206.018 712.904 210.638 730.354 217.287C747.935 224.131 764.422 232.814 779.133 244.705C784.429 249.319 789.37 254.326 793.912 259.685C808.096 278.381 816.439 300.057 825.587 321.336C837.506 348.963 845.313 377.961 855.643 406.143C858.989 415.751 862.872 425.164 867.274 434.336C868.922 437.972 870.124 441.817 872.349 445.184L877.315 455.118C878.448 456.191 878.428 457.88 879.431 459.013L884.338 466.016C886.503 469.106 888.986 471.977 891.141 475.056C904.769 491.427 921.932 502.683 941.887 509.736C958.385 515.567 975.21 519.342 992.821 519.968C998.293 520.157 1003.84 521.409 1009.43 521.746C1012.17 521.965 1014.77 523.073 1016.82 524.902C1018.88 526.731 1020.28 529.18 1020.82 531.879C1021.81 536.22 1018.61 542.121 1013.24 545.3C1000.91 552.601 987.795 558.214 974.505 563.608C961.692 568.764 948.363 572.311 934.775 571.625C919.459 570.85 904.143 568.645 889.284 564.006C875.706 559.754 862.804 554.32 850.806 546.641C836.413 537.442 824.911 525.203 814.135 512.239C798.948 493.99 784.665 474.996 768.713 457.383C765.832 454.432 762.668 451.77 759.267 449.436C754.232 445.711 749.643 445.741 744.478 449.317C739.843 452.51 736.086 456.818 733.552 461.844C726.599 475.374 722.716 490.017 718.653 504.56C715.475 515.905 712.446 527.279 708.651 538.435C707.986 540.422 707.738 542.568 706.665 544.396C703.496 550.108 701.271 556.317 697.805 561.89C691.26 572.46 682.906 581.013 671.981 586.973C666.945 589.596 661.383 590.49 655.979 591.94L645.312 592C638.637 590.45 631.694 590.013 625.377 587.033C617.431 583.278 609.684 579.304 603.526 572.867C590.524 559.257 583.661 542.687 579.34 524.587C576.281 511.673 576.966 498.024 570.838 485.844C567.719 479.646 564.302 473.626 558.919 469.016C556.237 467.486 554.678 464.615 551.966 463.165C549.135 460.97 546.275 458.814 543.474 456.579C541.289 454.83 539.501 454.84 537.574 457.135C532.515 463.188 527.376 469.172 522.159 475.086C515.692 482.447 508.402 488.765 499.314 492.878C487.276 498.352 475.426 497.01 463.557 492.411C452.755 488.218 442.861 481.985 434.415 474.053C431.514 471.361 430.084 470.953 428.455 475.404C423.876 488.229 418.801 500.865 413.924 513.58C413.109 515.19 412.772 516.968 411.997 518.547C408.213 525.501 404.716 532.505 400.346 539.111C389.42 555.711 373.896 563.012 354.408 561.304C338.943 559.953 326.12 552.313 314.619 542.26C299.164 528.76 287.801 511.921 276.299 495.212C271.442 488.159 266.962 480.828 260.655 474.887C256.772 471.221 255.252 471.51 253.097 476.278C250.117 482.775 249.501 489.828 247.952 496.673C246.68 502.266 246.571 508.087 244.376 513.481C242.389 518.448 238.476 520.276 233.033 520.057C202.242 518.826 179.338 501.779 157.864 482.467C137.075 463.903 118.677 442.823 103.096 419.713C92.0111 403.163 81.7508 386.136 76.3277 366.745C73.8048 357.745 71.5601 348.585 72.007 339.138C72.3034 334.225 73.0347 329.348 74.1922 324.565C74.7484 322.091 74.0829 321.088 71.9077 320.75C52.0427 317.651 39.776 304.667 30.0521 288.415C28.0656 285.603 26.7247 282.424 25.0958 279.434Z" fill="url(#paint0_linear_677_2219)"/>
</g>
<defs>
<filter id="filter0_d_677_2219" x="0" y="-377" width="1031" height="994" filterUnits="userSpaceOnUse" color-interpolation-filters="sRGB">
<feFlood flood-opacity="0" result="BackgroundImageFix"/>
<feColorMatrix in="SourceAlpha" type="matrix" values="0 0 0 0 0 0 0 0 0 0 0 0 0 0 0 0 0 0 127 0" result="hardAlpha"/>
<feOffset dy="15"/>
<feGaussianBlur stdDeviation="5"/>
<feComposite in2="hardAlpha" operator="out"/>
<feColorMatrix type="matrix" values="0 0 0 0 0 0 0 0 0 0 0 0 0 0 0 0 0 0 0.25 0"/>
<feBlend mode="normal" in2="BackgroundImageFix" result="effect1_dropShadow_677_2219"/>
<feBlend mode="normal" in="SourceGraphic" in2="effect1_dropShadow_677_2219" result="shape"/>
</filter>
<linearGradient id="paint0_linear_677_2219" x1="515.5" y1="-377" x2="515.5" y2="592" gradientUnits="userSpaceOnUse">
<stop offset="0.4" stop-color="#5BBECB"/>
<stop offset="1" stop-color="#E8E9DE"/>
</linearGradient>
</defs>
</svg>
