<svg width="330" height="808" viewBox="0 0 330 808" fill="none" xmlns="http://www.w3.org/2000/svg">
<g filter="url(#filter0_d_677_2225)">
<path d="M22.1991 530.431C17.962 521.021 14.8191 511.155 12.832 501.028C10.3518 488.473 9.82208 475.734 10.0468 462.906C10.5846 431.062 21.3402 403.248 41.7598 378.99C48.8824 370.335 56.9391 362.493 65.7833 355.607C68.6007 353.463 69.307 351.456 67.782 347.957C64.0737 339.408 62.8055 330.241 61.2162 321.081C59.627 311.922 59.6109 302.964 60.2129 294.03C61.6175 272.469 66.4415 251.766 79.6211 233.922C82.3575 230.29 85.6012 227.071 89.253 224.361C90.6978 223.27 91.7894 222.29 90.7861 220.452C84.9347 209.8 84.1963 198.233 84.6779 186.449C85.312 185.301 86.0264 184.097 85.906 182.796C85.312 176.527 87.8885 170.756 88.6751 164.735C91.9419 151.651 100.233 141.537 108.332 131.294C113.525 124.719 118.686 118.145 121.592 110.078C124.498 102.01 124.538 93.5658 123.254 85.2737C121.969 76.9816 120.508 68.5691 118.438 60.3412C115.789 49.9539 113.14 39.5908 109.528 29.5247C107.441 23.7852 105.041 18.1742 102.898 12.4588C101.293 8.09197 102.096 4.26299 105.081 1.90298C108.565 -0.850353 112.233 -0.28042 115.909 1.4936C123.711 5.25836 129.908 11.2627 136.409 16.7453C149.131 27.4376 160.336 39.5025 168.668 54.104C174.913 65.0291 180.146 76.3555 183.06 88.5649C184.861 96.3316 185.806 104.272 185.877 112.245C186.029 123.483 186.142 134.721 185.821 145.919C185.652 151.715 186.872 157.286 187.426 162.961C187.707 165.835 190.163 166.589 192.732 164.607C196.119 161.998 197.909 158.289 199.45 154.436C201.208 151.675 201.689 148.352 203.391 145.566C207.244 132.843 207.541 119.694 207.452 106.594C207.396 97.7641 205.277 89.0064 204.041 80.2166C203.174 74.0436 202.773 67.7824 204.482 61.6255C204.712 61.0003 204.855 60.3468 204.908 59.6829C204.828 55.4365 206.786 52.3139 210.743 51.15C214.901 49.9218 218.553 51.3828 221.451 54.7462C229.293 63.8491 234.582 74.4129 238.628 85.5707C242.822 96.7176 245.65 108.332 247.047 120.16C248.284 131.647 249.078 143.126 249.953 154.629C251.727 178.092 250.314 201.532 250.756 224.971C249.928 226.342 249.494 227.914 249.504 229.515C250.138 238.345 247.898 246.862 246.783 255.499C246.429 261.118 244.744 266.4 243.492 271.802C241.549 280.159 239.045 288.435 240.634 298.003C244.037 293.54 246.975 289.534 250.073 285.665C258.188 275.527 268.238 267.829 280.847 264.594C296.098 260.701 309.904 265.051 322.128 274.315C334.898 283.948 341.576 297.594 345.509 312.765C348.267 323.76 349.21 335.132 348.303 346.431C347.781 353.792 346.296 361.113 344.947 368.386C343.599 375.659 342.202 382.69 340.308 389.698C335.139 408.755 330.411 428.012 320.242 445.255C318.219 448.69 320.129 449.268 322.65 450.015C332.988 453.113 342.523 457.616 350.02 465.7C355.711 471.833 358.609 479.266 360.583 487.237C362.791 496.067 363.264 505.057 363.16 514.128C363.12 517.893 361.859 521.417 361.892 525.214C362.06 545.956 371.973 561.095 391.831 568.119C400.66 571.258 412.186 566.779 417.781 557.933C422.027 551.214 423.68 543.805 424.001 535.994C424.162 531.981 423.487 527.967 425.269 524.154C425.727 523.159 426.072 522.171 427.083 521.642C429.331 520.422 430.455 518.431 431.097 516.023C432.525 513.679 434.235 511.495 435.11 508.854C447.15 492.286 463.701 482.1 482.828 475.822C496.866 471.199 511.226 468.325 526.107 468.79C533.54 468.999 541.101 468.044 548.397 469.087C563.352 471.107 578.024 474.84 592.126 480.213C606.333 485.744 619.657 492.76 631.544 502.368C635.825 506.097 639.817 510.143 643.488 514.473C654.95 529.581 661.692 547.096 669.085 564.29C678.716 586.614 685.025 610.045 693.373 632.819C696.077 640.582 699.215 648.188 702.772 655.6C704.104 658.538 705.076 661.644 706.874 664.366L710.887 672.393C711.802 673.26 711.786 674.624 712.597 675.539L716.562 681.199C718.312 683.695 720.318 686.015 722.06 688.504C733.072 701.732 746.942 710.827 763.068 716.527C776.4 721.239 789.997 724.289 804.228 724.795C808.651 724.947 813.129 725.959 817.648 726.231C819.865 726.409 821.963 727.304 823.624 728.782C825.286 730.259 826.42 732.239 826.855 734.419C827.657 737.927 825.065 742.695 820.731 745.264C810.762 751.164 800.167 755.699 789.427 760.058C779.073 764.224 768.301 767.09 757.321 766.536C744.944 765.91 732.567 764.128 720.559 760.379C709.587 756.944 699.16 752.553 689.464 746.348C677.834 738.914 668.539 729.025 659.83 718.549C647.557 703.803 636.015 688.455 623.124 674.223C620.796 671.838 618.239 669.687 615.491 667.801C611.422 664.791 607.713 664.815 603.539 667.705C599.794 670.285 596.758 673.766 594.71 677.827C589.092 688.76 585.953 700.592 582.67 712.344C580.102 721.511 577.654 730.703 574.588 739.717C574.05 741.323 573.849 743.057 572.982 744.534C570.422 749.149 568.624 754.166 565.823 758.669C560.533 767.21 553.783 774.122 544.954 778.938C540.884 781.057 536.389 781.78 532.023 782.952L523.402 783C518.008 781.748 512.398 781.395 507.293 778.986C500.872 775.952 494.611 772.741 489.634 767.539C479.128 756.542 473.581 743.153 470.09 728.527C467.618 718.092 468.171 707.062 463.219 697.221C460.699 692.212 457.938 687.348 453.587 683.623C451.42 682.387 450.16 680.067 447.969 678.895C445.681 677.121 443.369 675.379 441.106 673.573C439.34 672.16 437.895 672.168 436.338 674.022C432.25 678.914 428.097 683.749 423.881 688.528C418.656 694.476 412.764 699.581 405.42 702.904C395.691 707.327 386.116 706.244 376.524 702.527C367.795 699.139 359.8 694.102 352.974 687.693C350.63 685.517 349.474 685.188 348.158 688.784C344.458 699.148 340.356 709.358 336.415 719.633C335.757 720.933 335.484 722.37 334.858 723.647C331.8 729.266 328.975 734.925 325.443 740.263C316.614 753.677 304.068 759.577 288.32 758.196C275.823 757.104 265.46 750.931 256.166 742.808C243.676 731.899 234.494 718.293 225.199 704.791C221.274 699.091 217.654 693.167 212.557 688.367C209.419 685.405 208.191 685.638 206.449 689.491C204.041 694.741 203.543 700.44 202.291 705.971C201.264 710.49 201.176 715.194 199.402 719.553C197.796 723.566 194.634 725.043 190.235 724.867C165.353 723.871 146.844 710.097 129.49 694.492C112.69 679.492 97.8232 662.458 85.2317 643.784C76.2741 630.411 67.9826 616.652 63.6001 600.983C61.5614 593.71 59.7474 586.309 60.1086 578.675C60.3481 574.705 60.939 570.764 61.8744 566.899C62.3239 564.9 61.7861 564.09 60.0283 563.817C43.9751 561.312 34.0623 550.821 26.2043 537.688C24.599 535.416 23.5154 532.848 22.1991 530.431Z" fill="url(#paint0_linear_677_2225)"/>
</g>
<defs>
<filter id="filter0_d_677_2225" x="0" y="0" width="837" height="808" filterUnits="userSpaceOnUse" color-interpolation-filters="sRGB">
<feFlood flood-opacity="0" result="BackgroundImageFix"/>
<feColorMatrix in="SourceAlpha" type="matrix" values="0 0 0 0 0 0 0 0 0 0 0 0 0 0 0 0 0 0 127 0" result="hardAlpha"/>
<feOffset dy="15"/>
<feGaussianBlur stdDeviation="5"/>
<feComposite in2="hardAlpha" operator="out"/>
<feColorMatrix type="matrix" values="0 0 0 0 0 0 0 0 0 0 0 0 0 0 0 0 0 0 0.25 0"/>
<feBlend mode="normal" in2="BackgroundImageFix" result="effect1_dropShadow_677_2225"/>
<feBlend mode="normal" in="SourceGraphic" in2="effect1_dropShadow_677_2225" result="shape"/>
</filter>
<linearGradient id="paint0_linear_677_2225" x1="418.5" y1="0" x2="418.5" y2="783" gradientUnits="userSpaceOnUse">
<stop offset="0.4" stop-color="#5BBECB"/>
<stop offset="1" stop-color="#E8E9DE"/>
</linearGradient>
</defs>
</svg>
