<svg width="1011" height="759" viewBox="0 0 1011 759" fill="none" xmlns="http://www.w3.org/2000/svg">
<path d="M995.904 102.566C1001.15 114.212 1005.04 126.421 1007.5 138.954C1010.56 154.491 1011.22 170.257 1010.94 186.131C1010.28 225.54 996.967 259.961 971.699 289.982C962.885 300.693 952.915 310.398 941.971 318.92C938.484 321.572 937.61 324.056 939.497 328.387C944.086 338.967 945.656 350.312 947.622 361.646C949.589 372.981 949.609 384.068 948.864 395.124C947.126 421.807 941.156 447.427 924.847 469.51C921.461 474.005 917.447 477.989 912.928 481.342C911.14 482.693 909.789 483.905 911.031 486.18C918.272 499.362 919.185 513.677 918.59 528.261C917.805 529.681 916.921 531.171 917.07 532.781C917.805 540.539 914.617 547.682 913.643 555.132C909.601 571.325 899.34 583.842 889.318 596.518C882.892 604.654 876.505 612.79 872.91 622.773C869.314 632.757 869.265 643.208 870.854 653.47C872.443 663.732 874.251 674.142 876.813 684.325C880.091 697.18 883.369 710.004 887.838 722.462C890.421 729.565 893.391 736.509 896.043 743.582C898.029 748.986 897.036 753.724 893.341 756.645C889.03 760.052 884.491 759.347 879.942 757.152C870.288 752.493 862.62 745.062 854.574 738.277C838.831 725.045 824.966 710.114 814.656 692.044C806.928 678.523 800.452 664.506 796.847 649.397C794.617 639.785 793.448 629.958 793.36 620.091C793.172 606.184 793.033 592.276 793.43 578.418C793.639 571.245 792.129 564.351 791.443 557.328C791.096 553.771 788.056 552.838 784.878 555.291C780.687 558.52 778.472 563.109 776.565 567.878C774.389 571.295 773.793 575.408 771.688 578.855C766.92 594.6 766.553 610.872 766.662 627.085C766.731 638.012 769.354 648.85 770.883 659.728C771.956 667.367 772.452 675.116 770.337 682.735C770.053 683.509 769.876 684.318 769.81 685.14C769.91 690.395 767.486 694.259 762.589 695.699C757.444 697.219 752.925 695.411 749.34 691.249C739.635 679.984 733.09 666.91 728.084 653.102C722.893 639.307 719.395 624.934 717.665 610.296C716.135 596.081 715.152 581.875 714.069 567.639C711.874 538.602 713.622 509.594 713.076 480.587C714.101 478.891 714.637 476.946 714.625 474.964C713.841 464.037 716.612 453.497 717.992 442.808C718.43 435.854 720.515 429.317 722.065 422.632C724.469 412.29 727.567 402.048 725.601 390.207C721.389 395.73 717.754 400.687 713.92 405.475C703.878 418.022 691.443 427.549 675.839 431.552C656.967 436.37 639.883 430.986 624.756 419.522C608.953 407.601 600.689 390.713 595.823 371.938C592.41 358.331 591.243 344.258 592.366 330.275C593.012 321.165 594.849 312.105 596.518 303.105C598.187 294.105 599.915 285.402 602.259 276.73C608.655 253.146 614.506 229.315 627.09 207.976C629.593 203.724 627.229 203.009 624.11 202.085C611.317 198.251 599.517 192.678 590.24 182.674C583.198 175.084 579.613 165.886 577.169 156.021C574.438 145.094 573.852 133.967 573.981 122.742C574.031 118.083 575.59 113.722 575.55 109.023C575.342 83.3532 563.075 64.6176 538.502 55.9252C527.576 52.041 513.313 57.5843 506.39 68.5316C501.136 76.8464 499.09 86.0156 498.693 95.6814C498.494 100.648 499.328 105.615 497.123 110.334C496.557 111.566 496.13 112.788 494.878 113.443C492.097 114.953 490.707 117.417 489.912 120.397C488.144 123.298 486.029 126 484.946 129.268C470.047 149.772 449.566 162.379 425.897 170.147C408.525 175.869 390.756 179.426 372.341 178.849C363.143 178.591 353.787 179.773 344.758 178.482C326.253 175.982 308.096 171.362 290.646 164.713C273.065 157.869 256.578 149.186 241.867 137.295C236.571 132.681 231.63 127.674 227.088 122.315C212.904 103.619 204.561 81.9426 195.413 60.6638C183.494 33.0372 175.687 4.03949 165.357 -24.1434C162.011 -33.7514 158.128 -43.1638 153.726 -52.3363C152.078 -55.9722 150.876 -59.8167 148.651 -63.1843L143.685 -73.1184C142.552 -74.1913 142.572 -75.88 141.569 -77.0125L136.662 -84.0161C134.497 -87.1055 132.014 -89.9766 129.859 -93.0561C116.231 -109.427 99.0678 -120.683 79.1134 -127.736C62.6155 -133.567 45.7897 -137.342 28.1794 -137.968C22.7066 -138.157 17.1642 -139.409 11.5722 -139.746C8.82959 -139.965 6.23328 -141.073 4.17725 -142.902C2.12122 -144.731 0.717712 -147.18 0.179626 -149.879C-0.813599 -154.22 2.39459 -160.121 7.75812 -163.3C20.0943 -170.601 33.2053 -176.214 46.4949 -181.608C59.3079 -186.764 72.6373 -190.311 86.225 -189.625C101.541 -188.85 116.857 -186.645 131.716 -182.006C145.294 -177.754 158.196 -172.32 170.194 -164.641C184.587 -155.442 196.089 -143.203 206.865 -130.239C222.052 -111.99 236.335 -92.9965 252.287 -75.3833C255.168 -72.4318 258.332 -69.77 261.733 -67.4361C266.768 -63.7108 271.357 -63.7406 276.522 -67.3169C281.157 -70.5103 284.914 -74.8179 287.448 -79.8437C294.401 -93.3739 298.284 -108.017 302.347 -122.56C305.525 -133.905 308.554 -145.279 312.349 -156.435C313.014 -158.422 313.262 -160.568 314.335 -162.396C317.504 -168.108 319.729 -174.317 323.195 -179.89C329.74 -190.46 338.094 -199.013 349.019 -204.973C354.055 -207.596 359.617 -208.49 365.021 -209.94L375.688 -210C382.363 -208.45 389.306 -208.013 395.623 -205.033C403.569 -201.278 411.316 -197.304 417.474 -190.867C430.476 -177.257 437.339 -160.687 441.66 -142.587C444.719 -129.673 444.034 -116.024 450.162 -103.844C453.281 -97.6456 456.698 -91.6255 462.081 -87.0161C464.763 -85.4863 466.322 -82.6154 469.034 -81.165C471.865 -78.9695 474.725 -76.8138 477.526 -74.5787C479.711 -72.8303 481.499 -72.8402 483.426 -75.135C488.485 -81.1882 493.624 -87.1718 498.841 -93.0859C505.308 -100.447 512.598 -106.765 521.686 -110.878C533.724 -116.352 545.574 -115.01 557.443 -110.411C568.245 -106.218 578.139 -99.985 586.585 -92.0527C589.486 -89.3606 590.916 -88.9533 592.545 -93.4037C597.124 -106.229 602.199 -118.865 607.076 -131.58C607.891 -133.19 608.228 -134.968 609.003 -136.547C612.787 -143.501 616.284 -150.505 620.654 -157.111C631.58 -173.711 647.104 -181.012 666.592 -179.304C682.057 -177.953 694.88 -170.313 706.381 -160.26C721.836 -146.76 733.199 -129.921 744.701 -113.212C749.558 -106.159 754.038 -98.8277 760.345 -92.8871C764.228 -89.2214 765.748 -89.5096 767.903 -94.278C770.883 -100.775 771.499 -107.828 773.048 -114.673C774.32 -120.266 774.429 -126.087 776.624 -131.481C778.611 -136.448 782.524 -138.276 787.967 -138.057C818.758 -136.826 841.662 -119.779 863.136 -100.467C883.925 -81.9033 902.323 -60.8234 917.904 -37.7134C928.989 -21.1632 939.249 -4.13617 944.672 15.2551C947.195 24.2554 949.44 33.4146 948.993 42.8619C948.697 47.7747 947.965 52.6516 946.808 57.4352C946.252 59.9088 946.917 60.9121 949.092 61.2499C968.957 64.3493 981.224 77.3332 990.948 93.5853C992.934 96.3967 994.275 99.5756 995.904 102.566Z" fill="url(#paint0_linear_677_2216)"/>
<defs>
<linearGradient id="paint0_linear_677_2216" x1="505.5" y1="759" x2="505.5" y2="-210" gradientUnits="userSpaceOnUse">
<stop offset="0.4" stop-color="#5BBECB"/>
<stop offset="1" stop-color="#E8E9DE"/>
</linearGradient>
</defs>
</svg>
