<svg width="375" height="769" viewBox="0 0 375 769" fill="none" xmlns="http://www.w3.org/2000/svg">
<g filter="url(#filter0_d_677_2220)">
<path d="M29.3065 304.502C22.6008 315.847 17.6267 327.742 14.4821 339.951C10.5568 355.087 9.71843 370.446 10.0741 385.911C10.9252 424.303 27.9472 457.836 60.2637 487.083C71.536 497.517 84.2867 506.972 98.2838 515.274C102.743 517.858 103.86 520.277 101.447 524.497C95.578 534.804 93.571 545.856 91.0558 556.898C88.5406 567.94 88.5152 578.741 89.4679 589.512C91.6909 615.507 99.3254 640.466 120.184 661.979C124.514 666.358 129.648 670.239 135.427 673.505C137.714 674.822 139.442 676.002 137.854 678.219C128.593 691.061 127.424 705.007 128.187 719.214C129.19 720.598 130.321 722.049 130.13 723.617C129.19 731.175 133.268 738.134 134.513 745.392C139.683 761.167 152.805 773.361 165.622 785.71C173.841 793.636 182.009 801.562 186.608 811.288C191.206 821.014 191.27 831.195 189.237 841.192C187.205 851.189 184.893 861.332 181.616 871.252C177.424 883.775 173.232 896.269 167.515 908.404C164.212 915.324 160.414 922.089 157.022 928.979C154.482 934.244 155.752 938.86 160.478 941.706C165.991 945.025 171.796 944.338 177.614 942.199C189.961 937.66 199.768 930.421 210.058 923.812C230.192 910.921 247.925 896.375 261.111 878.771C270.994 865.6 279.276 851.944 283.887 837.224C286.739 827.861 288.234 818.287 288.346 808.675C288.588 795.126 288.765 781.577 288.257 768.077C287.99 761.089 289.921 754.373 290.798 747.531C291.242 744.066 295.13 743.156 299.195 745.547C304.555 748.692 307.388 753.163 309.827 757.809C312.609 761.138 313.371 765.144 316.064 768.503C322.162 783.842 322.632 799.694 322.492 815.488C322.403 826.134 319.049 836.692 317.093 847.289C315.721 854.732 315.086 862.28 317.792 869.703C318.154 870.457 318.381 871.245 318.465 872.045C318.338 877.165 321.438 880.929 327.7 882.333C334.28 883.813 340.06 882.052 344.646 877.997C357.057 867.022 365.428 854.286 371.83 840.834C378.469 827.395 382.943 813.393 385.156 799.133C387.112 785.284 388.37 771.445 389.754 757.576C392.562 729.288 390.326 701.029 391.025 672.77C389.714 671.118 389.028 669.222 389.043 667.292C390.046 656.647 386.502 646.379 384.737 635.965C384.178 629.191 381.51 622.823 379.528 616.31C376.454 606.235 372.491 596.258 375.006 584.722C380.392 590.102 385.041 594.932 389.945 599.596C402.788 611.819 418.692 621.1 438.648 625C462.784 629.694 484.633 624.449 503.98 613.281C524.19 601.667 534.759 585.215 540.984 566.924C545.347 553.668 546.841 539.958 545.404 526.336C544.579 517.461 542.228 508.635 540.094 499.867C537.96 491.099 535.75 482.621 532.752 474.172C524.571 451.197 517.089 427.98 500.995 407.192C497.793 403.05 500.817 402.354 504.805 401.454C521.167 397.718 536.258 392.289 548.123 382.543C557.129 375.149 561.715 366.188 564.84 356.578C568.333 345.932 569.083 335.093 568.917 324.157C568.854 319.618 566.86 315.37 566.91 310.792C567.177 285.785 582.865 267.532 614.293 259.064C628.266 255.28 646.507 260.681 655.361 271.346C662.081 279.446 664.698 288.378 665.206 297.795C665.46 302.634 664.393 307.473 667.213 312.07C667.937 313.27 668.484 314.46 670.084 315.099C673.641 316.57 675.419 318.97 676.436 321.873C678.697 324.699 681.403 327.331 682.787 330.515C701.842 350.49 728.035 362.771 758.307 370.339C780.524 375.914 803.25 379.379 826.801 378.817C838.564 378.566 850.53 379.717 862.077 378.459C885.745 376.024 908.966 371.523 931.283 365.046C953.768 358.378 974.855 349.919 993.668 338.335C1000.44 333.84 1006.76 328.962 1012.57 323.741C1030.71 305.527 1041.38 284.411 1053.08 263.681C1068.32 236.767 1078.31 208.517 1091.52 181.062C1095.8 171.701 1100.77 162.532 1106.39 153.596C1108.5 150.054 1110.04 146.309 1112.89 143.028L1119.24 133.35C1120.69 132.305 1120.66 130.66 1121.94 129.556L1128.22 122.734C1130.99 119.724 1134.16 116.927 1136.92 113.927C1154.35 97.9778 1176.3 87.0129 1201.82 80.1417C1222.92 74.4608 1244.44 70.7833 1266.96 70.1736C1273.96 69.9897 1281.05 68.7703 1288.2 68.4412C1291.71 68.2277 1295.03 67.1483 1297.66 65.3668C1300.29 63.5853 1302.08 61.199 1302.77 58.5699C1304.04 54.3408 1299.94 48.5922 1293.08 45.4952C1277.3 38.3821 1260.53 32.9142 1243.54 27.6591C1227.15 22.6364 1210.1 19.1814 1192.72 19.8492C1173.14 20.6041 1153.55 22.7524 1134.54 27.272C1117.18 31.4141 1100.68 36.7078 1085.33 44.1888C1066.93 53.1504 1052.22 65.0734 1038.43 77.7029C1019.01 95.481 1000.74 113.985 980.342 131.144C976.657 134.019 972.611 136.612 968.262 138.886C961.821 142.515 955.953 142.486 949.347 139.002C943.42 135.891 938.615 131.694 935.374 126.798C926.482 113.617 921.515 99.3521 916.319 85.1838C912.254 74.1318 908.38 63.0507 903.527 52.1826C902.676 50.247 902.359 48.1567 900.987 46.3759C896.935 40.8112 894.089 34.7626 889.656 29.3334C881.284 19.0362 870.601 10.7036 856.628 4.89697C850.187 2.34204 843.074 1.47101 836.163 0.0581055L822.52 0C813.984 1.50977 805.105 1.93561 797.025 4.83893C786.863 8.49713 776.955 12.3682 769.079 18.6395C752.451 31.898 743.673 48.0405 738.147 65.6734C734.234 78.2545 735.111 91.5518 727.273 103.417C723.284 109.456 718.915 115.32 712.03 119.811C708.6 121.301 706.605 124.098 703.137 125.511C699.517 127.65 695.859 129.75 692.276 131.927C689.482 133.631 687.195 133.621 684.731 131.385C678.261 125.489 671.689 119.659 665.016 113.898C656.746 106.727 647.422 100.571 635.799 96.5648C620.403 91.2324 605.248 92.5389 590.068 97.0197C576.254 101.105 563.6 107.177 552.797 114.904C549.088 117.527 547.259 117.924 545.176 113.588C539.319 101.094 532.828 88.784 526.591 76.3964C525.549 74.8286 525.117 73.0963 524.127 71.5576C519.287 64.7831 514.815 57.9602 509.226 51.5245C495.253 35.353 475.398 28.2397 450.475 29.9043C430.696 31.2205 414.297 38.6628 399.586 48.4567C379.821 61.6088 365.288 78.0126 350.578 94.2906C344.366 101.162 338.637 108.304 330.571 114.091C325.604 117.662 323.661 117.382 320.904 112.736C317.093 106.407 316.306 99.5359 314.324 92.868C312.698 87.4194 312.558 81.7482 309.751 76.4932C307.21 71.6543 302.205 69.8736 295.244 70.0865C255.865 71.2866 226.571 87.8936 199.108 106.707C172.52 124.792 148.991 145.328 129.063 167.842C114.887 183.965 101.764 200.553 94.8286 219.444C91.602 228.212 88.7311 237.135 89.3028 246.338C89.6818 251.124 90.617 255.875 92.0974 260.535C92.8088 262.945 91.9577 263.923 89.1757 264.252C63.7697 267.271 48.0815 279.92 35.6453 295.753C33.1047 298.492 31.3898 301.589 29.3065 304.502Z" fill="url(#paint0_linear_677_2220)"/>
</g>
<defs>
<filter id="filter0_d_677_2220" x="0" y="0" width="1313" height="969" filterUnits="userSpaceOnUse" color-interpolation-filters="sRGB">
<feFlood flood-opacity="0" result="BackgroundImageFix"/>
<feColorMatrix in="SourceAlpha" type="matrix" values="0 0 0 0 0 0 0 0 0 0 0 0 0 0 0 0 0 0 127 0" result="hardAlpha"/>
<feOffset dy="15"/>
<feGaussianBlur stdDeviation="5"/>
<feComposite in2="hardAlpha" operator="out"/>
<feColorMatrix type="matrix" values="0 0 0 0 0 0 0 0 0 0 0 0 0 0 0 0 0 0 0.25 0"/>
<feBlend mode="normal" in2="BackgroundImageFix" result="effect1_dropShadow_677_2220"/>
<feBlend mode="normal" in="SourceGraphic" in2="effect1_dropShadow_677_2220" result="shape"/>
</filter>
<linearGradient id="paint0_linear_677_2220" x1="656.5" y1="944" x2="656.5" y2="0" gradientUnits="userSpaceOnUse">
<stop offset="0.4" stop-color="#5BBECB"/>
<stop offset="1" stop-color="#E8E9DE"/>
</linearGradient>
</defs>
</svg>
