<svg width="440" height="577" viewBox="0 0 440 577" fill="none" xmlns="http://www.w3.org/2000/svg">
<path d="M368.72 64.1373C367.386 63.4945 367.023 61.8872 366.359 60.6812C361.525 49.1828 356.692 37.6916 351.866 26.1924C350.607 23.0948 355.337 21.1117 356.642 24.2255C361.577 36.8613 367.779 49.1656 372.015 61.9971C372.111 63.6302 370.175 64.8232 368.721 64.1444L368.72 64.1373Z" fill="#414042"/>
<path d="M340.497 37.3634C337.521 30.8473 334.816 24.2175 331.993 17.6387C331.704 16.9467 331.716 16.1447 332.013 15.4602C332.895 13.233 336.35 13.2488 337.2 15.4943C339.91 22.4655 343.531 29.2438 345.64 36.3769C345.765 39.1998 341.475 40.0006 340.505 37.3697L340.497 37.3634Z" fill="#414042"/>
<path d="M361.922 79.4656C359.568 76.5041 358.426 72.6429 356.563 69.3368C354.204 63.9307 350.772 58.7739 348.985 53.2096C348.858 50.3142 353.268 49.4766 354.269 52.1835L363.617 71.3228C364.447 73.7599 367.309 76.5201 365.645 79.1061C364.771 80.2624 363 80.4018 361.921 79.4584L361.922 79.4656Z" fill="#414042"/>
<path d="M360.623 98.1242C343.864 72.9896 328.347 47.0171 314.889 19.9671C314.293 18.6728 313.215 17.3145 313.905 15.8462C314.761 13.7024 318.09 13.7047 318.909 15.8738C332.717 44.0522 347.893 69.6885 365.274 95.8522C366.137 98.5034 362.237 100.406 360.63 98.1233L360.623 98.1242Z" fill="#414042"/>
<path d="M379.492 40.7271C379.398 39.9676 379.062 39.2526 378.504 38.6961C354.261 14.2923 323.283 -6.96574 277.329 20.4058C259.653 30.9339 245.583 45.6425 233.007 59.9628C232.616 60.404 232.346 60.9393 232.219 61.515C228.286 79.2839 232.209 97.2528 236.008 114.633C236.865 118.564 237.728 122.487 238.488 126.401C243.627 152.759 240.693 172.354 229.742 184.691C221.787 193.647 210.433 198.142 198.402 202.895C190.795 205.901 182.938 209.011 175.85 213.386C161.532 222.226 152.528 231.151 142.098 241.489C132.274 251.229 121.135 262.273 102.659 276.326C89.6749 286.209 83.6733 301.775 77.8797 316.835C75.9926 321.738 74.0385 326.809 71.9028 331.474L46.1869 387.629C44.1949 391.977 42.2526 397.026 44.4613 401.968C47.8571 409.549 58.0124 410.091 65.8425 406.759C84.3955 398.85 94.9557 381.149 105.171 364.029C106.237 362.246 107.291 360.479 108.353 358.726C118.699 341.655 136.246 331.332 150.345 323.028L150.719 322.807C153.274 321.306 154.088 321.569 154.096 321.575C155.638 322.294 156.873 329.946 157.767 335.538C159.314 345.131 161.421 358.268 167.493 372.036C168.274 373.809 170.345 374.608 172.126 373.828C173.908 373.047 174.711 370.97 173.932 369.211C168.224 356.264 166.193 343.633 164.708 334.419C163.074 324.241 161.991 317.523 157.085 315.234C153.008 313.33 148.586 315.928 147.143 316.783L146.768 317.004C131.987 325.705 113.597 336.533 102.327 355.114C101.258 356.875 100.192 358.658 99.1204 360.456C89.4801 376.61 79.5194 393.306 63.0762 400.314C58.9744 402.065 52.4601 402.616 50.8883 399.108C49.864 396.841 51.2332 393.486 52.5853 390.526L78.3012 334.371C80.529 329.506 82.522 324.335 84.4481 319.333C89.8942 305.188 95.5295 290.562 106.932 281.893C125.775 267.562 137.083 256.344 147.064 246.455C157.604 236.008 165.924 227.757 179.557 219.343C186.102 215.305 193.674 212.31 200.995 209.412C213.262 204.564 225.94 199.549 235.012 189.335C247.483 175.283 250.994 153.674 245.394 125.06C244.622 121.104 243.752 117.124 242.882 113.143C239.305 96.7975 235.617 79.9052 238.904 63.8891C250.939 50.2176 264.374 36.2858 280.933 26.4194C321.729 2.12235 348.891 19.2696 372.019 42.1527C355.572 96.4559 353.942 154.215 367.328 209.333C367.77 211.141 368.227 212.954 368.685 214.774C371.459 225.785 374.322 237.171 373.299 248.259C372.125 260.967 366.036 272.739 360.147 284.116L314.627 372.127C309.63 381.786 303.971 392.727 295.218 399.949C287.432 406.366 277.43 410.098 268.666 412.905C212.255 430.942 178.464 445.616 158.27 454.382C139.762 462.416 131.316 466.086 126.388 463.684C125.72 463.359 124.813 462.693 124.562 460.658L124.555 460.601C123.746 453.616 131.317 439.704 147.362 426.613C155.612 419.876 178.282 402.926 210.404 391.063L213.241 390.021C224.952 385.751 238.214 380.911 245.776 369.888C253.759 358.252 252.9 344.043 252.076 330.295C251.953 328.289 251.832 326.296 251.743 324.328C250.367 294.006 258.193 262.94 273.796 236.84C274.796 235.174 274.248 233.031 272.576 232.037C270.906 231.051 268.746 231.601 267.752 233.259C251.451 260.522 243.271 292.978 244.718 324.651C244.812 326.655 244.93 328.684 245.05 330.72C245.808 343.283 246.591 356.279 239.964 365.936C233.677 375.1 222.058 379.337 210.831 383.438L207.965 384.491C174.845 396.724 151.432 414.232 142.902 421.193C126.247 434.781 116.305 450.565 117.562 461.415L117.574 461.515C118.054 465.413 120.083 468.421 123.285 469.981C131.134 473.804 139.899 469.993 161.064 460.809C181.132 452.094 214.723 437.511 270.796 419.581C280.2 416.571 290.982 412.532 299.69 405.353C309.558 397.216 315.563 385.592 320.868 375.342L366.387 287.331C372.293 275.908 378.991 262.969 380.289 248.901C381.422 236.628 378.413 224.656 375.496 213.073C375.041 211.275 374.593 209.475 374.154 207.689C360.898 153.101 362.698 95.895 379.345 42.2072C379.498 41.73 379.539 41.2303 379.479 40.7431L379.492 40.7271Z" fill="#414042"/>
<path d="M183.748 360.236C183.658 359.498 183.328 358.775 182.761 358.205C181.395 356.832 179.173 356.816 177.792 358.18C167.058 368.734 162.385 381.172 157.428 394.343C154.74 401.478 151.965 408.857 148.098 416.145C147.183 417.852 147.838 419.975 149.562 420.875C151.28 421.775 153.405 421.119 154.312 419.406C158.393 411.72 161.245 404.128 164.01 396.787C168.685 384.364 173.095 372.628 182.72 363.165C183.528 362.366 183.87 361.284 183.741 360.237L183.748 360.236Z" fill="#414042"/>
<path d="M122.382 463.568C122.273 462.68 121.825 461.826 121.059 461.237C119.525 460.052 117.316 460.325 116.123 461.848C112.133 466.946 107.72 471.923 103.46 476.728C99.3551 481.361 95.1074 486.142 91.1749 491.11C81.1522 503.757 75.3571 514.965 72.9473 526.379C71.5942 532.723 72.9106 537.609 76.6371 540.116C80.2129 542.525 84.5728 541.687 87.5445 540.846C95.4224 538.62 102.776 535.04 109.385 530.214C110.954 529.074 111.29 526.879 110.149 525.318C109 523.758 106.804 523.419 105.236 524.566C99.3041 528.901 92.7085 532.11 85.635 534.106C84.7029 534.367 81.8652 535.169 80.5907 534.309C79.2139 533.388 79.2927 530.344 79.8359 527.811C82.0235 517.501 87.3767 507.214 96.7039 495.445C100.517 490.631 104.699 485.915 108.741 481.363C113.078 476.476 117.555 471.419 121.677 466.151C122.27 465.386 122.506 464.455 122.397 463.567L122.382 463.568Z" fill="#414042"/>
<path d="M284.452 412.126C284.287 410.794 283.359 409.622 281.983 409.201C280.122 408.637 278.154 409.684 277.586 411.527C272.648 427.639 259.509 442.058 238.528 454.383C230.917 458.853 222.779 462.857 214.917 466.725C204.45 471.871 193.632 477.191 183.666 483.78C175.403 489.246 167.677 495.619 160.209 501.779C150.009 510.192 139.465 518.894 127.733 525.038C124.575 526.688 121.19 528.221 117.851 528.186C115.355 528.164 112.275 526.855 111.461 524.476C110.398 521.336 113.203 517.374 115.779 514.268C136.863 488.827 157.421 469.446 182.455 451.429C184.032 450.291 184.382 448.104 183.238 446.544C182.092 444.976 179.892 444.627 178.322 445.764C152.786 464.148 131.821 483.906 110.343 509.824C106.61 514.328 102.625 520.324 104.795 526.73C106.474 531.656 111.82 535.137 117.793 535.192C122.712 535.237 127.243 533.215 131.025 531.234C143.402 524.75 154.238 515.808 164.71 507.166C172.038 501.118 179.619 494.871 187.57 489.604C197.165 483.263 207.776 478.042 218.043 472.993C226.022 469.067 234.277 465.012 242.113 460.406C264.662 447.162 278.862 431.399 284.324 413.566C284.469 413.083 284.51 412.591 284.451 412.119L284.452 412.126Z" fill="#414042"/>
<path d="M243.525 457.201C243.419 456.342 242.995 455.522 242.264 454.928C240.76 453.702 238.542 453.917 237.31 455.413C220.83 475.363 191.466 503.533 174.369 517.33C162.076 527.25 150.973 538.631 141.365 551.159L140.786 551.921C138.453 554.97 136.252 557.857 133.409 559.689C131.081 561.189 127.471 562.083 125.059 560.489C117.812 555.694 122.066 541.658 127.223 533.675C128.279 532.048 127.798 529.882 126.163 528.84C124.528 527.798 122.35 528.269 121.302 529.895C113.286 542.3 110.516 559.28 121.162 566.318C125.63 569.281 131.944 568.978 137.244 565.557C141.122 563.053 143.801 559.547 146.391 556.146L146.963 555.4C156.232 543.314 166.945 532.33 178.807 522.76C196.162 508.75 225.996 480.13 242.743 459.856C243.379 459.087 243.633 458.126 243.518 457.202L243.525 457.201Z" fill="#414042"/>
<path d="M287.097 215.209C286.996 214.392 286.607 213.611 285.943 213.024C284.491 211.741 282.264 211.871 280.974 213.317L276.499 218.326C275.209 219.773 275.336 221.982 276.789 223.272C278.241 224.555 280.468 224.426 281.758 222.979L286.232 217.97C286.932 217.185 287.217 216.176 287.097 215.209Z" fill="#414042"/>
<path d="M216.999 289.162C216.967 288.904 216.906 288.65 216.816 288.399C216.152 286.584 214.133 285.637 212.306 286.295C204.541 289.076 195.715 288.854 188.096 285.689C186.299 284.941 184.24 285.786 183.488 287.57C182.744 289.353 183.584 291.402 185.388 292.149C194.618 295.983 205.3 296.249 214.704 292.884C216.28 292.322 217.197 290.758 217 289.169L216.999 289.162Z" fill="#414042"/>
</svg>
