<svg width="581" height="510" viewBox="0 0 581 510" fill="none" xmlns="http://www.w3.org/2000/svg">
<path d="M75.4643 359.305C72.3363 370.112 69.2082 380.919 66.0787 391.719C65.6464 393.226 65.0432 395.2 66.6504 396.223C71.0533 398.283 71.0917 391.012 72.2871 388.406C74.897 378.908 78.1875 369.491 80.452 359.945C80.4137 357.216 76.2316 356.685 75.4572 359.306L75.4643 359.305Z" fill="#414042"/>
<path d="M92.136 353.615C89.7974 361.156 87.354 368.659 85.0714 376.218C84.3434 378.166 86.612 380.11 88.4312 379.106C89.7346 378.417 89.8625 376.809 90.3253 375.557C92.385 368.432 95.1485 361.392 96.8485 354.223C96.8185 351.642 92.8615 351.153 92.1289 353.617L92.136 353.615Z" fill="#414042"/>
<path d="M86.2424 388.324C85.3632 386.463 82.4024 386.677 81.8078 388.657C79.698 395.971 77.5953 403.284 75.4855 410.598C74.9655 412.973 72.5295 417.179 76.1704 418.084C77.9464 418.52 79.1562 416.844 79.3788 415.262C80.1973 412.243 81.0546 409.231 81.8976 406.222C83.3955 400.877 84.8878 395.54 86.3857 390.195C86.5943 389.585 86.5403 388.895 86.2424 388.324Z" fill="#414042"/>
<path d="M112.356 351.006C111.432 349.073 108.343 349.275 107.716 351.352C100.547 379.442 91.6008 407.156 82.4729 434.573C82.5076 437.213 86.5507 437.721 87.3 435.194C94.5087 414.001 101.424 392.69 107.506 371.134C109.224 365.087 110.886 359.029 112.502 352.959C112.719 352.317 112.66 351.606 112.356 351.006Z" fill="#414042"/>
<path d="M255.516 293.884C254.922 294.008 254.298 293.981 253.682 293.781C251.823 293.161 250.817 291.156 251.438 289.304C262.719 255.355 268.526 220.002 268.705 184.231L268.718 180.925C268.761 162.923 268.811 142.518 281.455 128.381C282.822 126.852 284.913 124.538 287.497 121.688C296.754 111.455 312.246 94.3402 322.942 81.6678C346.093 54.2347 380.557 28.3479 404.89 20.109C419.185 15.2708 445.223 10.6068 460.571 9.28551C464.769 8.92664 468.113 10.8409 469.512 14.4124C472.293 21.507 466.493 32.7356 455.719 41.129C451.619 44.3235 445.298 46.772 437.992 49.6118C430.389 52.5657 421.764 55.9111 413.529 60.8457C393.087 73.0922 382.001 93.6383 372.217 111.773C367.314 120.861 362.686 129.438 357.379 135.903C356.135 137.415 353.906 137.633 352.396 136.396C350.885 135.152 350.66 132.924 351.904 131.413C356.776 125.477 361.248 117.187 365.978 108.418C376.198 89.4765 387.773 68.016 409.887 54.7729C418.639 49.5294 427.554 46.0714 435.42 43.0182C442.216 40.3813 448.08 38.1024 451.367 35.5471C461.558 27.6178 463.916 19.5586 462.915 17.0077C462.791 16.698 462.613 16.2354 461.177 16.3553C446.548 17.6166 420.772 22.2185 407.161 26.8323C383.915 34.7035 350.772 59.6967 328.349 86.2551C317.574 99.0183 302.036 116.195 292.747 126.457C290.176 129.296 288.09 131.602 286.729 133.123C275.889 145.251 275.84 163.404 275.794 180.959L275.784 184.28C275.605 220.803 269.675 256.89 258.162 291.552C257.749 292.793 256.714 293.658 255.52 293.906L255.516 293.884Z" fill="#414042"/>
<path d="M366.944 144.256C366.158 144.419 365.317 144.319 364.555 143.918C356.277 139.503 347.356 136.698 338.05 135.585C336.108 135.355 334.72 133.593 334.957 131.65C335.194 129.706 336.955 128.318 338.892 128.557C349.078 129.778 358.835 132.841 367.893 137.668C369.621 138.591 370.269 140.738 369.353 142.465C368.838 143.429 367.939 144.056 366.946 144.263L366.944 144.256Z" fill="#414042"/>
<path d="M401.429 150.129C400.299 150.364 399.084 150.043 398.203 149.175C396.819 147.792 396.814 145.549 398.19 144.167C405.099 137.233 410.085 131.125 414.49 125.742C423.442 114.79 430.517 106.145 446.58 99.5889C448.434 98.8228 450.861 98.9516 454.863 99.1555C466.215 99.7393 487.345 100.802 502.815 79.7465C504.535 77.4051 505.104 75.0125 504.476 74.4346C504.008 74.0101 502.526 73.8411 501.732 73.7527C474.7 70.7042 453.094 71.1502 433.75 75.1598L433.628 75.1851C416.874 78.6706 393.187 86.8573 375.236 106.057C373.899 107.484 371.656 107.563 370.23 106.226C368.804 104.89 368.725 102.647 370.061 101.221C389.28 80.6606 414.43 71.9385 432.184 68.2448L432.313 68.2181C452.415 64.0509 474.73 63.5693 502.527 66.7122C504.229 66.9023 507.092 67.2239 509.257 69.2045C512.922 72.5581 512.642 78.3433 508.527 83.9419C490.798 108.077 466.288 106.83 454.509 106.231C452.436 106.126 449.895 106.028 449.166 106.179C434.865 112.026 428.944 119.268 419.98 130.23C415.474 135.739 410.369 141.991 403.22 149.168C402.714 149.676 402.088 150 401.43 150.136L401.429 150.129Z" fill="#414042"/>
<path d="M166.911 491.925C166.411 492.029 165.874 492.029 165.356 491.905C108.957 478.308 67.453 430.643 54.3373 364.41C53.9751 362.562 55.1123 360.752 56.94 360.289C125.274 342.904 192.266 313.687 256.058 273.429C257.714 272.391 259.904 272.883 260.949 274.537C261.994 276.191 261.496 278.383 259.842 279.428C196.437 319.434 129.886 348.655 61.975 366.319C75.0611 427.248 113.299 471.148 164.965 484.507C213.959 429.215 255.36 410.9 299.164 391.519C315.586 384.255 332.561 376.741 349.872 367.115C354.696 364.426 359.322 362.144 363.798 359.93C386.313 348.795 402.573 340.752 407.18 299.452C412.273 253.718 423.241 232.421 432.051 215.309C438.913 201.981 444.84 190.472 446.299 170.78C446.435 168.962 447.919 167.528 449.756 167.504C451.583 167.467 453.139 168.82 453.352 170.633C454.689 182.003 458.76 193.042 465.126 202.567C466.943 205.276 469.438 208.56 472.677 209.937C475.033 210.938 478.426 210.65 479.719 208.621C480.859 206.825 480.465 203.962 479.912 200.945L475.188 175.12C474.845 173.223 476.07 171.402 477.949 171.011L478.035 170.994C479.961 170.645 481.806 171.917 482.162 173.841L486.886 199.666C487.665 203.948 488.224 208.462 485.7 212.425C482.21 217.909 474.956 218.597 469.917 216.454C464.954 214.355 461.609 210.032 459.249 206.504C455.657 201.137 452.734 195.332 450.54 189.264C447.701 200.421 443.261 209.047 438.365 218.559C429.374 236.022 419.187 255.807 414.234 300.244C409.207 345.397 389.626 355.078 366.955 366.29C362.554 368.466 358.011 370.716 353.332 373.315C335.742 383.104 318.608 390.68 302.043 398.012C258.546 417.254 217.467 435.428 168.872 490.816C168.353 491.401 167.667 491.797 166.931 491.95L166.911 491.925Z" fill="#414042"/>
<path d="M503.789 186.895C500.408 187.598 496.304 187.043 491.868 185.184C477.048 178.969 464.724 167.544 457.319 153.35C448.369 164.705 436.856 173.848 423.713 179.991C421.932 180.823 419.833 180.052 419.002 178.279C418.17 176.505 418.94 174.399 420.714 173.568C434.551 167.102 446.443 157.022 455.091 144.433C455.83 143.362 457.095 142.778 458.384 142.913C459.679 143.046 460.792 143.881 461.29 145.089C467.47 160.134 479.611 172.366 494.609 178.648C498.081 180.104 502.749 180.997 504.514 178.728C505.859 176.987 505.279 173.767 502.734 168.882L483.166 131.389C481.292 127.789 479.347 124.07 476.425 121.636C471.94 117.893 465.074 116.898 454.803 118.498C446.397 119.814 437.357 119.659 428.841 119.299C426.886 119.221 425.371 117.567 425.449 115.612C425.527 113.657 427.18 112.142 429.135 112.22C437.291 112.567 445.911 112.712 453.704 111.494C461.525 110.269 472.863 109.424 480.959 116.188C484.965 119.531 487.344 124.084 489.441 128.107L509.008 165.601C510.62 168.688 514.892 176.89 510.105 183.06C508.547 185.07 506.382 186.348 503.781 186.889L503.789 186.895Z" fill="#414042"/>
<path d="M325.452 323.271C323.858 323.603 322.192 322.801 321.498 321.253C320.693 319.466 321.495 317.368 323.276 316.573C337.447 310.209 344.903 293.931 348.662 281.389C350.072 276.696 351.279 271.784 352.438 267.032C355.059 256.33 357.774 245.259 363.117 235.206C369.458 223.284 379.015 213.667 388.253 204.377C391.244 201.369 394.34 198.257 397.248 195.139C411.747 179.595 418.562 165.508 418.073 152.083C417.933 148.257 416.227 144.07 413.724 143.972C412.43 143.921 410.819 144.92 409.135 146.038C375.534 168.404 342.776 192.848 311.764 218.695C310.25 219.949 308.024 219.749 306.778 218.241C305.525 216.734 305.725 214.508 307.232 213.255C338.433 187.241 371.398 162.643 405.209 140.143C407.233 138.798 410.29 136.752 413.988 136.893C421.287 137.171 424.886 144.827 425.14 151.82C425.699 167.229 418.266 182.974 402.414 199.97C399.433 203.17 396.293 206.321 393.266 209.367C383.98 218.711 375.204 227.532 369.357 238.532C364.426 247.805 361.937 257.957 359.305 268.713C358.118 273.546 356.9 278.549 355.437 283.417C349.354 303.713 339.503 317.044 326.17 323.032C325.932 323.141 325.686 323.215 325.436 323.267L325.452 323.271Z" fill="#414042"/>
<path d="M298.621 334.4C296.991 334.739 295.301 333.89 294.634 332.298C293.878 330.495 294.729 328.416 296.533 327.661L308.412 322.684C310.216 321.928 312.295 322.778 313.05 324.582C313.806 326.386 312.956 328.464 311.152 329.22L299.272 334.197C299.059 334.286 298.842 334.354 298.621 334.4Z" fill="#414042"/>
</svg>
