<svg width="1594" height="248" viewBox="0 0 1594 248" fill="none" xmlns="http://www.w3.org/2000/svg">
<path d="M0.945312 0.601562H247.345V72.0576H159.697V247.354H88.2413V72.0576H0.945312V0.601562Z" fill="white"/>
<path d="M333.695 175.546H508.639V247.002H262.591V0.953558H508.287V72.4096H333.695V88.2496H508.639V159.706H333.695V175.546Z" fill="white"/>
<path d="M789.566 75.9296C795.902 91.4176 799.07 107.258 799.07 124.154C799.07 140.698 795.902 156.538 789.566 172.026C783.23 186.458 774.43 199.834 763.166 211.098C751.902 222.362 738.526 231.162 724.094 237.498C708.606 243.834 692.766 247.002 675.87 247.002H539.998V0.953558H675.87C692.766 0.953558 708.606 4.12156 724.094 10.4576C738.526 16.7936 751.902 25.5936 763.166 36.8576C774.43 48.1216 783.23 61.4976 789.566 75.9296ZM675.87 175.546C704.382 175.546 727.614 152.314 727.614 124.154C727.614 95.6416 704.382 72.4096 675.87 72.4096H611.102V175.546H675.87Z" fill="white"/>
<path d="M1068.8 0.601562L970.241 124.154L1068.8 247.354H977.281L924.481 181.178L871.329 247.354H780.161L878.721 124.154L780.161 0.601562H871.329L924.481 66.7776L977.281 0.601562H1068.8Z" fill="white"/>
<path d="M1250.37 0.601562H1321.83V130.49C1321.83 146.33 1318.66 161.466 1312.68 175.898C1306.69 189.978 1298.24 202.298 1287.68 213.21C1276.77 223.77 1264.45 232.218 1250.37 238.202C1235.94 244.186 1220.45 247.354 1204.96 247.354H1192.64C1176.8 247.354 1161.32 244.186 1146.88 238.202C1133.16 232.218 1120.48 223.77 1109.92 213.21C1099.01 202.298 1090.56 189.978 1084.93 175.898C1078.6 161.466 1075.78 146.33 1075.78 130.49V0.601562H1146.88V130.49C1146.88 155.482 1167.3 175.898 1192.64 175.898H1204.96C1229.96 175.898 1250.37 155.482 1250.37 130.49V0.601562Z" fill="white"/>
<path d="M1587.51 136.474C1591.73 146.33 1593.84 156.538 1593.84 167.098V168.506C1593.84 179.066 1591.73 189.274 1587.51 199.13C1583.63 208.634 1577.65 217.082 1570.61 224.122C1563.22 231.514 1554.77 237.146 1545.62 241.018C1535.76 245.242 1525.55 247.354 1514.64 247.354H1395.31C1394.26 247.354 1393.55 247.354 1392.85 247.354H1348.85V0.601562H1387.57C1388.27 0.601562 1388.63 0.601562 1389.33 0.601562H1503.73C1514.29 0.601562 1524.5 2.71358 1534.35 6.93756C1543.86 10.8096 1552.31 16.4416 1559.35 23.8336C1566.74 30.8736 1572.37 39.3216 1576.24 48.8256C1580.47 58.3296 1582.58 68.8896 1582.58 79.4496V80.8576C1582.58 91.4176 1580.47 101.978 1576.24 111.482C1575.89 112.89 1575.19 114.298 1574.48 115.706C1579.76 121.69 1584.34 128.73 1587.51 136.474ZM1420.31 72.0576V88.2496H1503.73C1507.95 88.2496 1511.12 85.0816 1511.12 80.8576V79.4496C1511.12 75.2256 1507.95 72.0576 1503.73 72.0576H1420.31ZM1522.39 168.506V167.098C1522.39 163.226 1518.87 159.706 1514.64 159.706H1420.31V175.898H1514.64C1518.87 175.898 1522.39 172.378 1522.39 168.506Z" fill="white"/>
</svg>
