<svg width="472" height="465" viewBox="0 0 472 465" fill="none" xmlns="http://www.w3.org/2000/svg">
<g filter="url(#filter0_d_682_3105)">
<mask id="path-1-outside-1_682_3105" maskUnits="userSpaceOnUse" x="6" y="-14" width="460" height="416" fill="black">
<rect fill="white" x="6" y="-14" width="460" height="416"/>
<path d="M20.6317 388L193.432 146.523L192.878 237.908L25.6164 0.307682H172.386L269.863 144.308L207.278 144.862L302.539 0.307682H443.216L275.955 232.923V142.092L451.524 388H301.986L204.509 237.354L264.878 236.8L169.616 388H20.6317Z"/>
</mask>
<path d="M20.6317 388L193.432 146.523L192.878 237.908L25.6164 0.307682H172.386L269.863 144.308L207.278 144.862L302.539 0.307682H443.216L275.955 232.923V142.092L451.524 388H301.986L204.509 237.354L264.878 236.8L169.616 388H20.6317Z" fill="#D9151C"/>
<path d="M20.6317 388L9.37165 379.942C6.35209 384.162 5.94517 389.716 8.31745 394.33C10.6897 398.945 15.443 401.846 20.6317 401.846V388ZM193.432 146.523L207.278 146.607C207.314 140.575 203.441 135.213 197.703 133.352C191.965 131.491 185.682 133.56 182.172 138.465L193.432 146.523ZM192.878 237.908L181.556 245.878C185.022 250.802 191.272 252.921 197.018 251.12C202.764 249.32 206.687 244.013 206.724 237.992L192.878 237.908ZM25.6164 0.307682V-13.5385C20.4469 -13.5385 15.7079 -10.6587 13.3266 -6.07031C10.9454 -1.48191 11.3185 4.05088 14.2943 8.27801L25.6164 0.307682ZM172.386 0.307682L183.852 -7.45401C181.276 -11.259 176.98 -13.5385 172.386 -13.5385V0.307682ZM269.863 144.308L269.985 158.153C275.087 158.108 279.75 155.261 282.122 150.744C284.493 146.226 284.189 140.771 281.329 136.546L269.863 144.308ZM207.278 144.862L195.716 137.243C192.902 141.514 192.671 146.989 195.117 151.481C197.562 155.974 202.285 158.752 207.4 158.707L207.278 144.862ZM302.539 0.307682V-13.5385C297.884 -13.5385 293.54 -11.1988 290.978 -7.31134L302.539 0.307682ZM443.216 0.307682L454.458 8.391C457.491 4.17364 457.907 -1.38624 455.538 -6.00869C453.168 -10.6311 448.411 -13.5385 443.216 -13.5385V0.307682ZM275.955 232.923H262.109C262.109 238.934 265.987 244.259 271.709 246.102C277.43 247.945 283.687 245.887 287.197 241.006L275.955 232.923ZM275.955 142.092L287.224 134.047C283.726 129.148 277.463 127.07 271.731 128.906C265.998 130.743 262.109 136.073 262.109 142.092H275.955ZM451.524 388V401.846C456.71 401.846 461.461 398.948 463.835 394.337C466.208 389.726 465.806 384.175 462.793 379.954L451.524 388ZM301.986 388L290.361 395.522C292.912 399.465 297.289 401.846 301.986 401.846V388ZM204.509 237.354L204.382 223.508C199.332 223.555 194.708 226.346 192.316 230.793C189.923 235.24 190.141 240.636 192.884 244.876L204.509 237.354ZM264.878 236.8L276.593 244.181C279.293 239.895 279.437 234.478 276.97 230.054C274.502 225.631 269.816 222.908 264.751 222.954L264.878 236.8ZM169.616 388V401.846C174.373 401.846 178.796 399.405 181.331 395.381L169.616 388ZM31.8918 396.058L204.692 154.581L182.172 138.465L9.37165 379.942L31.8918 396.058ZM179.586 146.439L179.032 237.824L206.724 237.992L207.278 146.607L179.586 146.439ZM204.2 229.937L36.9385 -7.66265L14.2943 8.27801L181.556 245.878L204.2 229.937ZM25.6164 14.1538H172.386V-13.5385H25.6164V14.1538ZM160.919 8.06937L258.396 152.069L281.329 136.546L183.852 -7.45401L160.919 8.06937ZM269.74 130.462L207.155 131.016L207.4 158.707L269.985 158.153L269.74 130.462ZM218.839 152.481L314.101 7.9267L290.978 -7.31134L195.716 137.243L218.839 152.481ZM302.539 14.1538H443.216V-13.5385H302.539V14.1538ZM431.975 -7.77564L264.713 224.84L287.197 241.006L454.458 8.391L431.975 -7.77564ZM289.801 232.923V142.092H262.109V232.923H289.801ZM264.686 150.138L440.255 396.046L462.793 379.954L287.224 134.047L264.686 150.138ZM451.524 374.154H301.986V401.846H451.524V374.154ZM313.61 380.478L216.133 229.832L192.884 244.876L290.361 395.522L313.61 380.478ZM204.636 251.199L265.005 250.646L264.751 222.954L204.382 223.508L204.636 251.199ZM253.163 229.419L157.901 380.619L181.331 395.381L276.593 244.181L253.163 229.419ZM169.616 374.154H20.6317V401.846H169.616V374.154Z" fill="#373D33" mask="url(#path-1-outside-1_682_3105)"/>
</g>
<defs>
<filter id="filter0_d_682_3105" x="0.632812" y="0.307617" width="470.891" height="464.692" filterUnits="userSpaceOnUse" color-interpolation-filters="sRGB">
<feFlood flood-opacity="0" result="BackgroundImageFix"/>
<feColorMatrix in="SourceAlpha" type="matrix" values="0 0 0 0 0 0 0 0 0 0 0 0 0 0 0 0 0 0 127 0" result="hardAlpha"/>
<feOffset dy="57"/>
<feGaussianBlur stdDeviation="10"/>
<feComposite in2="hardAlpha" operator="out"/>
<feColorMatrix type="matrix" values="0 0 0 0 0 0 0 0 0 0 0 0 0 0 0 0 0 0 0.25 0"/>
<feBlend mode="normal" in2="BackgroundImageFix" result="effect1_dropShadow_682_3105"/>
<feBlend mode="normal" in="SourceGraphic" in2="effect1_dropShadow_682_3105" result="shape"/>
</filter>
</defs>
</svg>
