<svg width="313" height="305" viewBox="0 0 313 305" fill="none" xmlns="http://www.w3.org/2000/svg">
<path d="M5.76312 191.813C4.60975 192.438 3.90237 193.655 3.93049 194.966C3.95862 196.277 4.71753 197.463 5.89662 198.037L78.4431 233.386C79.5239 233.912 80.7993 233.847 81.821 233.214L133.553 201.126L140.958 262.067C141.101 263.246 141.832 264.272 142.899 264.792L215.715 300.271C216.894 300.846 218.294 300.713 219.344 299.928C220.394 299.143 220.917 297.837 220.7 296.544L199 167.533L306.847 109.453C308.003 108.83 308.713 107.613 308.686 106.3C308.66 104.987 307.901 103.8 306.72 103.225L238.219 69.8477C237.161 69.3322 235.915 69.3829 234.902 69.9826L185.032 99.5197L176.774 41.6194C176.61 40.4696 175.886 39.476 174.842 38.9673L103.374 4.14464C102.2 3.57226 100.804 3.70195 99.7546 4.48095C98.7055 5.25996 98.1777 6.55853 98.3858 7.84858L118.243 130.907L5.76312 191.813Z" fill="#CF3F42" stroke="#373D33" stroke-width="7" stroke-linejoin="round"/>
</svg>
