<svg width="687" height="646" viewBox="0 0 687 646" fill="none" xmlns="http://www.w3.org/2000/svg">
<path d="M-5.62967 627.971C-7.13972 630.08 -7.34338 632.857 -6.1573 635.165C-4.97121 637.472 -2.5945 638.923 0 638.923H237.536C239.914 638.923 242.125 637.703 243.393 635.691L341.73 479.641L442.769 635.761C444.045 637.733 446.233 638.923 448.581 638.923H687C689.593 638.923 691.969 637.474 693.156 635.168C694.342 632.863 694.141 630.087 692.634 627.977L467.476 312.677L679.375 18.0422C680.892 15.9336 681.1 13.1535 679.915 10.8421C678.731 8.53072 676.352 7.07692 673.755 7.07692H449.464C447.136 7.07692 444.965 8.24656 443.684 10.19L347.022 156.839L247.684 10.1186C246.396 8.21641 244.248 7.07692 241.951 7.07692H7.9473C5.36244 7.07692 2.99286 8.51693 1.80229 10.8113C0.611726 13.1057 0.798491 15.8722 2.28663 17.9857L214.867 319.902L-5.62967 627.971Z" fill="#D9151C" stroke="#373D33" stroke-width="13.8462" stroke-linejoin="round"/>
</svg>
